<svg width="22" height="22" viewBox="0 0 22 22" fill="none" xmlns="http://www.w3.org/2000/svg">
<path d="M2.03804 20.0827C1.46475 19.4847 1.47487 18.525 2.06066 17.9392L18.3241 1.67576C18.9099 1.08998 19.8495 1.09989 20.4228 1.69791V1.69791C20.9961 2.29593 20.986 3.25559 20.4002 3.84138L4.13674 20.1048C3.55095 20.6906 2.61133 20.6807 2.03804 20.0827V20.0827Z" fill="#2D3845"/>
<path d="M20.4231 20.0827C19.8251 20.656 18.8655 20.6459 18.2797 20.0601L2.01622 3.79661C1.43043 3.21083 1.44035 2.27121 2.03836 1.69791V1.69791C2.63638 1.12462 3.59604 1.13474 4.18183 1.72053L20.4453 17.984C21.0311 18.5698 21.0212 19.5094 20.4231 20.0827V20.0827Z" fill="#2D3845"/>
</svg>
