<svg width="139" height="49" viewBox="0 0 139 49" fill="none" xmlns="http://www.w3.org/2000/svg">
<path fill-rule="evenodd" clip-rule="evenodd" d="M21 29.4998H10.0001C6.4102 29.4998 3.5 32.41 3.5 35.9999C3.5 39.5898 6.4102 42.5 10.0001 42.5H21V46H10.0001C4.47721 46 0 41.5228 0 35.9999C0 30.477 4.47721 25.9998 10.0001 25.9998H23.5H27V26.5H21V29.4998Z" fill="#4A607A"/>
<path d="M20 42.5002H61.25C62.2165 42.5002 63 43.2837 63 44.2502V44.2502C63 45.2167 62.2165 46.0002 61.25 46.0002H20V42.5002Z" fill="#4A607A"/>
<path d="M20 26H61.25C62.2165 26 63 26.7835 63 27.75V27.75C63 28.7165 62.2165 29.5 61.25 29.5H20V26Z" fill="#4A607A"/>
<path d="M8 33.625C8 33.0037 8.50368 32.5 9.125 32.5H59.875C60.4963 32.5 61 33.0037 61 33.625V33.625C61 34.2463 60.4963 34.75 59.875 34.75H9.125C8.50368 34.75 8 34.2463 8 33.625V33.625Z" fill="#4A607A"/>
<path d="M8 38.375C8 37.7537 8.50368 37.25 9.125 37.25H11.875C12.4963 37.25 13 37.7537 13 38.375V38.375C13 38.9963 12.4963 39.5 11.875 39.5H9.125C8.50368 39.5 8 38.9963 8 38.375V38.375Z" fill="#4A607A"/>
<path d="M25 38.375C25 37.7537 25.5037 37.25 26.125 37.25H56.875C57.4963 37.25 58 37.7537 58 38.375V38.375C58 38.9963 57.4963 39.5 56.875 39.5H26.125C25.5037 39.5 25 38.9963 25 38.375V38.375Z" fill="#4A607A"/>
<path fill-rule="evenodd" clip-rule="evenodd" d="M23 33H15V49.0012L19.0013 46.0013L23 49.0001V33Z" fill="#4A607A"/>
<path fill-rule="evenodd" clip-rule="evenodd" d="M34 7H23.0001C19.4102 7 16.5 9.9102 16.5 13.5001C16.5 17.09 19.4102 20.0002 23.0001 20.0002H34V23.5002H23.0001C17.4772 23.5002 13 19.023 13 13.5001C13 7.97721 17.4772 3.5 23.0001 3.5H36.5H40V4.00024H34V7Z" fill="#4A607A"/>
<path d="M33 20.0005H61.25C62.2165 20.0005 63 20.784 63 21.7505V21.7505C63 22.717 62.2165 23.5005 61.25 23.5005H33V20.0005Z" fill="#4A607A"/>
<path d="M33 3.50024H61.25C62.2165 3.50024 63 4.28375 63 5.25024V5.25024C63 6.21674 62.2165 7.00024 61.25 7.00024H33V3.50024Z" fill="#4A607A"/>
<path d="M21 11.1252C21 10.5039 21.5037 10.0002 22.125 10.0002H53.875C54.4963 10.0002 55 10.5039 55 11.1252V11.1252C55 11.7466 54.4963 12.2502 53.875 12.2502H22.125C21.5037 12.2502 21 11.7466 21 11.1252V11.1252Z" fill="#4A607A"/>
<path d="M21 15.8752C21 15.2539 21.5037 14.7502 22.125 14.7502H57.875C58.4963 14.7502 59 15.2539 59 15.8752V15.8752C59 16.4966 58.4963 17.0002 57.875 17.0002H22.125C21.5037 17.0002 21 16.4966 21 15.8752V15.8752Z" fill="#4A607A"/>
<path d="M70.517 21V3.54545H77.5057C78.7898 3.54545 79.8608 3.7358 80.7188 4.11648C81.5767 4.49716 82.2216 5.02557 82.6534 5.7017C83.0852 6.37216 83.3011 7.14489 83.3011 8.01989C83.3011 8.7017 83.1648 9.30114 82.892 9.81818C82.6193 10.3295 82.2443 10.75 81.767 11.0795C81.2955 11.4034 80.7557 11.6335 80.1477 11.7699V11.9403C80.8125 11.9687 81.4347 12.1562 82.0142 12.5028C82.5994 12.8494 83.0739 13.3352 83.4375 13.9602C83.8011 14.5795 83.983 15.3182 83.983 16.1761C83.983 17.1023 83.7528 17.929 83.2926 18.6562C82.8381 19.3778 82.1648 19.9489 81.2727 20.3693C80.3807 20.7898 79.2813 21 77.9744 21H70.517ZM74.2074 17.983H77.2159C78.2443 17.983 78.9943 17.7869 79.4659 17.3949C79.9375 16.9972 80.1733 16.4687 80.1733 15.8097C80.1733 15.3267 80.0568 14.9006 79.8239 14.5312C79.5909 14.1619 79.2585 13.8722 78.8267 13.6619C78.4006 13.4517 77.892 13.3466 77.3011 13.3466H74.2074V17.983ZM74.2074 10.8494H76.9432C77.4489 10.8494 77.8977 10.7614 78.2898 10.5852C78.6875 10.4034 79 10.1477 79.2273 9.81818C79.4602 9.48864 79.5767 9.09375 79.5767 8.63352C79.5767 8.00284 79.3523 7.49432 78.9034 7.10795C78.4602 6.72159 77.8295 6.52841 77.0114 6.52841H74.2074V10.8494ZM92.2308 21.2557C90.907 21.2557 89.7621 20.9744 88.7962 20.4119C87.8359 19.8437 87.0945 19.054 86.5717 18.0426C86.049 17.0256 85.7876 15.8466 85.7876 14.5057C85.7876 13.1534 86.049 11.9716 86.5717 10.9602C87.0945 9.94318 87.8359 9.15341 88.7962 8.59091C89.7621 8.02273 90.907 7.73864 92.2308 7.73864C93.5547 7.73864 94.6967 8.02273 95.657 8.59091C96.6229 9.15341 97.3672 9.94318 97.8899 10.9602C98.4126 11.9716 98.674 13.1534 98.674 14.5057C98.674 15.8466 98.4126 17.0256 97.8899 18.0426C97.3672 19.054 96.6229 19.8437 95.657 20.4119C94.6967 20.9744 93.5547 21.2557 92.2308 21.2557ZM92.2479 18.4432C92.8501 18.4432 93.353 18.2727 93.7564 17.9318C94.1598 17.5852 94.4638 17.1136 94.6683 16.517C94.8786 15.9205 94.9837 15.2415 94.9837 14.4801C94.9837 13.7188 94.8786 13.0398 94.6683 12.4432C94.4638 11.8466 94.1598 11.375 93.7564 11.0284C93.353 10.6818 92.8501 10.5085 92.2479 10.5085C91.6399 10.5085 91.1286 10.6818 90.7138 11.0284C90.3047 11.375 89.995 11.8466 89.7848 12.4432C89.5803 13.0398 89.478 13.7188 89.478 14.4801C89.478 15.2415 89.5803 15.9205 89.7848 16.517C89.995 17.1136 90.3047 17.5852 90.7138 17.9318C91.1286 18.2727 91.6399 18.4432 92.2479 18.4432ZM106.95 21.2557C105.626 21.2557 104.481 20.9744 103.515 20.4119C102.555 19.8437 101.813 19.054 101.29 18.0426C100.768 17.0256 100.506 15.8466 100.506 14.5057C100.506 13.1534 100.768 11.9716 101.29 10.9602C101.813 9.94318 102.555 9.15341 103.515 8.59091C104.481 8.02273 105.626 7.73864 106.95 7.73864C108.273 7.73864 109.415 8.02273 110.376 8.59091C111.342 9.15341 112.086 9.94318 112.609 10.9602C113.131 11.9716 113.393 13.1534 113.393 14.5057C113.393 15.8466 113.131 17.0256 112.609 18.0426C112.086 19.054 111.342 19.8437 110.376 20.4119C109.415 20.9744 108.273 21.2557 106.95 21.2557ZM106.967 18.4432C107.569 18.4432 108.072 18.2727 108.475 17.9318C108.879 17.5852 109.183 17.1136 109.387 16.517C109.597 15.9205 109.702 15.2415 109.702 14.4801C109.702 13.7188 109.597 13.0398 109.387 12.4432C109.183 11.8466 108.879 11.375 108.475 11.0284C108.072 10.6818 107.569 10.5085 106.967 10.5085C106.359 10.5085 105.847 10.6818 105.433 11.0284C105.023 11.375 104.714 11.8466 104.504 12.4432C104.299 13.0398 104.197 13.7188 104.197 14.4801C104.197 15.2415 104.299 15.9205 104.504 16.517C104.714 17.1136 105.023 17.5852 105.433 17.9318C105.847 18.2727 106.359 18.4432 106.967 18.4432ZM119.043 17.233L119.052 12.8778H119.58L123.773 7.90909H127.941L122.308 14.4886H121.447L119.043 17.233ZM115.754 21V3.54545H119.384V21H115.754ZM123.935 21L120.083 15.2983L122.504 12.733L128.188 21H123.935ZM85.9176 34.6562H82.1847C82.1165 34.1733 81.9773 33.7443 81.767 33.3693C81.5568 32.9886 81.2869 32.6648 80.9574 32.3977C80.6278 32.1307 80.2472 31.9261 79.8153 31.7841C79.3892 31.642 78.9261 31.571 78.4261 31.571C77.5227 31.571 76.7358 31.7955 76.0653 32.2443C75.3949 32.6875 74.875 33.3352 74.5057 34.1875C74.1364 35.0341 73.9517 36.0625 73.9517 37.2727C73.9517 38.517 74.1364 39.5625 74.5057 40.4091C74.8807 41.2557 75.4034 41.8949 76.0739 42.3267C76.7443 42.7585 77.5199 42.9744 78.4006 42.9744C78.8949 42.9744 79.3523 42.9091 79.7727 42.7784C80.1989 42.6477 80.5767 42.4574 80.9062 42.2074C81.2358 41.9517 81.5085 41.642 81.7244 41.2784C81.946 40.9148 82.0994 40.5 82.1847 40.0341L85.9176 40.0511C85.821 40.8523 85.5795 41.625 85.1932 42.3693C84.8125 43.108 84.2983 43.7699 83.6506 44.3551C83.0085 44.9347 82.2415 45.3949 81.3494 45.7358C80.4631 46.071 79.4602 46.2386 78.3409 46.2386C76.7841 46.2386 75.392 45.8864 74.1648 45.1818C72.9432 44.4773 71.9773 43.4574 71.267 42.1222C70.5625 40.7869 70.2102 39.1705 70.2102 37.2727C70.2102 35.3693 70.5682 33.75 71.2841 32.4148C72 31.0795 72.9716 30.0625 74.1989 29.3636C75.4261 28.6591 76.8068 28.3068 78.3409 28.3068C79.3523 28.3068 80.2898 28.4489 81.1534 28.733C82.0227 29.017 82.7926 29.4318 83.4631 29.9773C84.1335 30.517 84.679 31.179 85.0994 31.9631C85.5256 32.7472 85.7983 33.6449 85.9176 34.6562ZM92.1264 28.5455V46H88.4957V28.5455H92.1264ZM100.95 46.2557C99.6257 46.2557 98.4808 45.9744 97.5149 45.4119C96.5547 44.8437 95.8132 44.054 95.2905 43.0426C94.7678 42.0256 94.5064 40.8466 94.5064 39.5057C94.5064 38.1534 94.7678 36.9716 95.2905 35.9602C95.8132 34.9432 96.5547 34.1534 97.5149 33.5909C98.4808 33.0227 99.6257 32.7386 100.95 32.7386C102.273 32.7386 103.415 33.0227 104.376 33.5909C105.342 34.1534 106.086 34.9432 106.609 35.9602C107.131 36.9716 107.393 38.1534 107.393 39.5057C107.393 40.8466 107.131 42.0256 106.609 43.0426C106.086 44.054 105.342 44.8437 104.376 45.4119C103.415 45.9744 102.273 46.2557 100.95 46.2557ZM100.967 43.4432C101.569 43.4432 102.072 43.2727 102.475 42.9318C102.879 42.5852 103.183 42.1136 103.387 41.517C103.597 40.9205 103.702 40.2415 103.702 39.4801C103.702 38.7188 103.597 38.0398 103.387 37.4432C103.183 36.8466 102.879 36.375 102.475 36.0284C102.072 35.6818 101.569 35.5085 100.967 35.5085C100.359 35.5085 99.8473 35.6818 99.4325 36.0284C99.0234 36.375 98.7138 36.8466 98.5036 37.4432C98.299 38.0398 98.1967 38.7188 98.1967 39.4801C98.1967 40.2415 98.299 40.9205 98.5036 41.517C98.7138 42.1136 99.0234 42.5852 99.4325 42.9318C99.8473 43.2727 100.359 43.4432 100.967 43.4432ZM118.148 40.4261V32.9091H121.779V46H118.293V43.6222H118.157C117.862 44.3892 117.37 45.0057 116.683 45.4716C116.001 45.9375 115.168 46.1705 114.185 46.1705C113.31 46.1705 112.54 45.9716 111.876 45.5739C111.211 45.1761 110.691 44.6108 110.316 43.8778C109.947 43.1449 109.759 42.267 109.754 41.2443V32.9091H113.384V40.5966C113.39 41.3693 113.597 41.9801 114.006 42.429C114.415 42.8778 114.964 43.1023 115.651 43.1023C116.089 43.1023 116.498 43.0028 116.879 42.804C117.259 42.5994 117.566 42.2983 117.799 41.9006C118.038 41.5028 118.154 41.0114 118.148 40.4261ZM129.507 46.2131C128.513 46.2131 127.612 45.9574 126.805 45.446C126.004 44.929 125.368 44.1705 124.896 43.1705C124.43 42.1648 124.197 40.9318 124.197 39.4716C124.197 37.9716 124.439 36.7244 124.922 35.7301C125.405 34.7301 126.047 33.983 126.848 33.4886C127.655 32.9886 128.538 32.7386 129.499 32.7386C130.232 32.7386 130.842 32.8636 131.331 33.1136C131.825 33.358 132.223 33.6648 132.524 34.0341C132.831 34.3977 133.064 34.7557 133.223 35.108H133.334V28.5455H136.956V46H133.376V43.9034H133.223C133.053 44.267 132.811 44.6278 132.499 44.9858C132.192 45.3381 131.791 45.6307 131.297 45.8636C130.808 46.0966 130.212 46.2131 129.507 46.2131ZM130.658 43.3239C131.243 43.3239 131.737 43.1648 132.141 42.8466C132.55 42.5227 132.862 42.071 133.078 41.4915C133.3 40.9119 133.411 40.233 133.411 39.4545C133.411 38.6761 133.303 38 133.087 37.4261C132.871 36.8523 132.558 36.4091 132.149 36.0966C131.74 35.7841 131.243 35.6278 130.658 35.6278C130.061 35.6278 129.558 35.7898 129.149 36.1136C128.74 36.4375 128.43 36.8864 128.22 37.4602C128.01 38.0341 127.905 38.6989 127.905 39.4545C127.905 40.2159 128.01 40.8892 128.22 41.4744C128.436 42.054 128.746 42.5085 129.149 42.8381C129.558 43.1619 130.061 43.3239 130.658 43.3239Z" fill="#4A607A"/>
</svg>
