<svg width="20" height="20" viewBox="0 0 20 20" fill="none" xmlns="http://www.w3.org/2000/svg">
<path fill-rule="evenodd" clip-rule="evenodd" d="M1.72603 7.91475C1.72603 4.56393 4.4424 1.84756 7.79321 1.84756C11.144 1.84756 13.8604 4.56393 13.8604 7.91475C13.8604 11.2656 11.144 13.9819 7.79321 13.9819C4.4424 13.9819 1.72603 11.2656 1.72603 7.91475ZM7.79321 0.232178C3.55025 0.232178 0.110641 3.67178 0.110641 7.91475C0.110641 12.1577 3.55025 15.5973 7.79321 15.5973C9.62385 15.5973 11.3049 14.957 12.6247 13.8882L18.0254 19.2889C18.3409 19.6043 18.8523 19.6043 19.1677 19.2889C19.4831 18.9735 19.4831 18.4621 19.1677 18.1467L13.767 12.7459C14.8356 11.4262 15.4758 9.74521 15.4758 7.91475C15.4758 3.67178 12.0362 0.232178 7.79321 0.232178Z" fill="white"/>
</svg>
