<svg width="24" height="28" viewBox="0 0 24 28" fill="none" xmlns="http://www.w3.org/2000/svg">
<rect x="3.78516" y="4.88086" width="5.1085" height="6.54113" fill="#6C91A6"/>
<rect x="6.81152" y="7.90833" width="7.56815" height="3.7099" fill="#6C91A6"/>
<rect x="6.81152" y="16.2059" width="7.94656" height="3.61227" fill="#6C91A6"/>
<rect x="3.78516" y="18.061" width="5.48691" height="4.78381" fill="#6C91A6"/>
<rect width="26.2261" height="3.00331" rx="1.50165" transform="matrix(0.859072 0.511855 -0.488238 0.872711 1.4668 0)" fill="#6C91A6"/>
<rect width="26.2261" height="3.00331" rx="1.50165" transform="matrix(0.859072 -0.511855 0.488238 0.872711 0.00390625 25.379)" fill="#6C91A6"/>
<rect width="2.93904" height="11.3992" rx="1.46952" transform="matrix(0.963829 -0.266521 0.251309 0.967907 0.19043 0.979004)" fill="#6C91A6"/>
<rect width="2.93904" height="11.3992" rx="1.46952" transform="matrix(0.963829 0.266521 -0.251309 0.967907 3.05469 16.0104)" fill="#6C91A6"/>
<rect width="17.0478" height="3.0225" rx="1.51125" transform="matrix(0.976776 -0.214263 0.201732 0.979441 2.45996 16.4041)" fill="#6C91A6"/>
<rect width="17.0478" height="3.0225" rx="1.51125" transform="matrix(0.976776 0.214263 -0.201732 0.979441 3.07031 8.68799)" fill="#6C91A6"/>
</svg>
