<?xml version="1.0" encoding="UTF-8"?><!DOCTYPE svg PUBLIC "-//W3C//DTD SVG 1.1//EN" "http://www.w3.org/Graphics/SVG/1.1/DTD/svg11.dtd"><svg xmlns="http://www.w3.org/2000/svg" xmlns:xlink="http://www.w3.org/1999/xlink"><defs/><symbol id="logo-max-dark" viewBox="0 0 197 53"><path d="M43.875 20.828v-3.085c0-8.521-7.275-15.429-16.25-15.429s-16.25 6.908-16.25 15.429v3.085c0 .333.011.664.033.992a1.25 1.25 0 0 1-1.253 1.323c-.606 0-1.123-.427-1.167-1.001-.034-.434-.05-.872-.05-1.314v-3.085C8.938 7.943 17.303 0 27.625 0c10.32 0 18.688 7.944 18.688 17.743v3.085c0 .432-.376.772-.83.772h-.815a.784.784 0 0 1-.793-.772Z" style="fill:#4a607a"/><path d="M43.875 20.443c0 .639.546 1.157 1.219 1.157h5.281c6.731 0 12.188 5.18 12.188 11.571 0 6.39-5.457 11.571-12.188 11.571h-6.906c-.673 0-1.219.519-1.219 1.158 0 .639.546 1.157 1.219 1.157h6.906C58.452 47.057 65 40.84 65 33.17s-6.548-13.886-14.625-13.886h-5.281c-.673 0-1.219.519-1.219 1.158Z" style="fill:#4a607a"/><path d="M48.286 45.9c0-.64-.546-1.158-1.219-1.158H9.344c-3.814 0-6.906-2.935-6.906-6.557 0-3.621 3.092-6.557 6.906-6.557H50.78c.673 0 1.219-.518 1.219-1.157s-.546-1.157-1.219-1.157H9.344C4.184 29.314 0 33.286 0 38.185c0 4.9 4.183 8.872 9.344 8.872h37.723c.673 0 1.219-.518 1.219-1.157ZM11.375 21.166c0 .232-.19.434-.434.434h-1.53c-.258 0-.473-.19-.473-.434 0-3.595 3.12-6.509 6.906-6.509 1.967 0 3.755.787 5.019 2.048.502.5.278 1.286-.367 1.607-.556.277-1.231.102-1.704-.29a4.612 4.612 0 0 0-2.948-1.05c-2.464 0-4.469 1.9-4.469 4.194Z" style="fill:#4a607a"/><path d="M34.938 19.217V18.9c0-3.622-3.093-6.557-6.907-6.557-3.28 0-6.026 2.171-6.73 5.083-.146.602-.672 1.088-1.323 1.088-.699 0-1.265-.556-1.14-1.209.791-4.138 4.606-7.277 9.193-7.277 5.16 0 9.344 3.972 9.344 8.872v.317c0 1.456-.37 2.83-1.024 4.043-.241.446-.797.63-1.3.474-.764-.237-1.05-1.132-.72-1.828.39-.82.606-1.73.606-2.689ZM7.313 33.75c0-.32.272-.579.609-.579h41.031c.337 0 .61.26.61.579 0 .32-.273.578-.61.578H7.922c-.337 0-.61-.259-.61-.578ZM4.875 40.693c0-.32.273-.58.61-.58h7.718c.337 0 .61.26.61.58 0 .319-.273.578-.61.578H5.484c-.336 0-.609-.259-.609-.578ZM7.313 43.007c0-.32.272-.579.609-.579h5.281c.337 0 .61.26.61.579 0 .32-.273.578-.61.578H7.922c-.337 0-.61-.259-.61-.578ZM21.125 43.007c0-.32.273-.579.61-.579h28.03c.337 0 .61.26.61.579 0 .32-.273.578-.61.578h-28.03c-.337 0-.61-.259-.61-.578ZM21.125 40.693c0-.32.273-.58.61-.58h27.218c.337 0 .61.26.61.58 0 .319-.273.578-.61.578H21.734c-.336 0-.609-.259-.609-.578ZM4.063 38.378c0-.32.272-.578.609-.578h42.656c.337 0 .61.259.61.578 0 .32-.273.579-.61.579H4.672c-.337 0-.61-.26-.61-.579ZM4.875 36.064c0-.32.273-.579.61-.579h41.843c.337 0 .61.26.61.579 0 .32-.273.578-.61.578H5.484c-.336 0-.609-.259-.609-.578Z" style="fill:#4a607a"/><path d="M20.313 38.571h-5.688V49.25l2.844-2.079 2.843 2.079V38.571ZM69.517 47V29.546h6.989c1.284 0 2.355.19 3.213.57.858.381 1.503.91 1.934 1.586.432.67.648 1.443.648 2.318 0 .682-.136 1.281-.409 1.798a3.53 3.53 0 0 1-1.125 1.262 4.61 4.61 0 0 1-1.62.69v.17a3.909 3.909 0 0 1 1.867.563c.585.346 1.06.832 1.424 1.457.363.62.545 1.358.545 2.216 0 .926-.23 1.753-.69 2.48-.455.722-1.128 1.293-2.02 1.713-.892.42-1.992.631-3.299.631h-7.457Zm3.69-3.017h3.009c1.028 0 1.778-.196 2.25-.588.472-.398.707-.926.707-1.585 0-.483-.116-.91-.35-1.279a2.374 2.374 0 0 0-.996-.87c-.426-.21-.935-.314-1.526-.314h-3.094v4.636Zm0-7.134h2.736c.506 0 .955-.088 1.347-.264.397-.182.71-.437.937-.767.233-.33.35-.724.35-1.184 0-.631-.225-1.14-.674-1.526-.443-.386-1.074-.58-1.892-.58h-2.804v4.321Zm18.024 10.407c-1.324 0-2.469-.282-3.435-.844a5.774 5.774 0 0 1-2.224-2.37c-.523-1.016-.784-2.195-.784-3.536 0-1.353.261-2.534.784-3.546a5.706 5.706 0 0 1 2.224-2.37c.966-.567 2.111-.851 3.435-.851 1.324 0 2.466.284 3.426.852a5.69 5.69 0 0 1 2.233 2.37c.523 1.01.784 2.192.784 3.545 0 1.34-.261 2.52-.784 3.537a5.757 5.757 0 0 1-2.233 2.369c-.96.562-2.102.844-3.426.844Zm.017-2.813c.602 0 1.105-.17 1.508-.511.404-.347.708-.818.912-1.415.21-.597.316-1.276.316-2.037 0-.761-.105-1.44-.316-2.037-.204-.596-.508-1.068-.912-1.415-.403-.346-.906-.52-1.508-.52-.608 0-1.12.174-1.534.52-.41.347-.719.819-.93 1.415-.204.597-.306 1.276-.306 2.037 0 .762.102 1.44.307 2.037.21.597.52 1.068.929 1.415.415.34.926.511 1.534.511Zm14.702 2.813c-1.324 0-2.469-.282-3.435-.844a5.778 5.778 0 0 1-2.225-2.37c-.522-1.016-.784-2.195-.784-3.536 0-1.353.262-2.534.784-3.546a5.71 5.71 0 0 1 2.225-2.37c.966-.567 2.111-.851 3.435-.851 1.323 0 2.465.284 3.426.852a5.69 5.69 0 0 1 2.233 2.37c.522 1.01.784 2.192.784 3.545 0 1.34-.262 2.52-.784 3.537a5.758 5.758 0 0 1-2.233 2.369c-.961.562-2.103.844-3.426.844Zm.017-2.813c.602 0 1.105-.17 1.508-.511.404-.347.708-.818.912-1.415.21-.597.315-1.276.315-2.037 0-.761-.105-1.44-.315-2.037-.204-.596-.508-1.068-.912-1.415-.403-.346-.906-.52-1.508-.52-.608 0-1.12.174-1.534.52-.41.347-.719.819-.929 1.415-.205.597-.307 1.276-.307 2.037 0 .762.102 1.44.307 2.037.21.597.519 1.068.929 1.415.414.34.926.511 1.534.511Zm12.076-1.21.009-4.355h.528l4.193-4.969h4.168l-5.633 6.58h-.861l-2.404 2.744ZM114.754 47V29.546h3.63V47h-3.63Zm8.181 0-3.852-5.702 2.421-2.565L127.188 47h-4.253Zm21.256-11.344h-3.733a3.632 3.632 0 0 0-.418-1.287c-.21-.38-.48-.704-.809-.971a3.566 3.566 0 0 0-1.142-.614 4.365 4.365 0 0 0-1.389-.213c-.904 0-1.691.224-2.361.673-.671.444-1.191 1.091-1.56 1.944-.369.846-.554 1.874-.554 3.085 0 1.244.185 2.29.554 3.136.375.847.898 1.486 1.568 1.918.671.431 1.446.647 2.327.647a4.6 4.6 0 0 0 1.372-.196c.426-.13.804-.32 1.134-.57a3.3 3.3 0 0 0 .818-.93c.221-.363.375-.778.46-1.244l3.733.017a6.768 6.768 0 0 1-.724 2.318 6.967 6.967 0 0 1-1.543 1.986c-.642.58-1.409 1.04-2.301 1.38-.886.336-1.889.504-3.009.504-1.556 0-2.949-.353-4.176-1.057-1.221-.705-2.187-1.725-2.898-3.06-.704-1.335-1.056-2.952-1.056-4.85 0-1.903.358-3.522 1.074-4.857.715-1.335 1.687-2.352 2.914-3.051 1.228-.705 2.608-1.057 4.142-1.057 1.012 0 1.949.142 2.813.426a7.14 7.14 0 0 1 2.31 1.244 6.413 6.413 0 0 1 1.636 1.986c.426.784.699 1.682.818 2.693Zm6.209-6.11V47h-3.631V29.546h3.631Zm8.823 17.71c-1.324 0-2.469-.282-3.435-.844a5.776 5.776 0 0 1-2.224-2.37c-.523-1.016-.784-2.195-.784-3.536 0-1.353.261-2.534.784-3.546a5.708 5.708 0 0 1 2.224-2.37c.966-.567 2.111-.851 3.435-.851 1.324 0 2.466.284 3.426.852a5.69 5.69 0 0 1 2.233 2.37c.523 1.01.784 2.192.784 3.545 0 1.34-.261 2.52-.784 3.537a5.758 5.758 0 0 1-2.233 2.369c-.96.562-2.102.844-3.426.844Zm.017-2.813c.602 0 1.105-.17 1.509-.511.403-.347.707-.818.912-1.415.21-.597.315-1.276.315-2.037 0-.761-.105-1.44-.315-2.037-.205-.596-.509-1.068-.912-1.415-.404-.346-.907-.52-1.509-.52-.608 0-1.119.174-1.534.52-.409.347-.719.819-.929 1.415-.205.597-.307 1.276-.307 2.037 0 .762.102 1.44.307 2.037.21.597.52 1.068.929 1.415.415.34.926.511 1.534.511Zm17.182-3.017V33.91h3.631V47h-3.486v-2.378h-.137a3.865 3.865 0 0 1-1.474 1.85c-.682.465-1.514.698-2.497.698-.875 0-1.645-.198-2.31-.596-.665-.398-1.185-.963-1.56-1.696-.369-.733-.556-1.611-.562-2.634V33.91h3.631v7.688c.005.772.213 1.383.622 1.832.409.449.957.673 1.645.673.437 0 .846-.1 1.227-.298a2.34 2.34 0 0 0 .92-.903c.239-.398.356-.89.35-1.475Zm11.359 5.787a4.942 4.942 0 0 1-2.702-.767c-.801-.517-1.438-1.276-1.909-2.276-.466-1.005-.699-2.238-.699-3.698 0-1.5.241-2.748.724-3.742.483-1 1.125-1.747 1.926-2.241.807-.5 1.691-.75 2.651-.75.733 0 1.344.125 1.832.375.495.244.892.55 1.194.92.306.364.539.722.698 1.074h.111v-6.562h3.622V47h-3.579v-2.097h-.154c-.17.364-.411.725-.724 1.083-.307.352-.707.645-1.202.878-.488.233-1.085.35-1.789.35Zm1.15-2.89c.585 0 1.08-.158 1.483-.476.409-.324.722-.776.938-1.355.221-.58.332-1.259.332-2.037 0-.779-.108-1.455-.324-2.029-.216-.574-.528-1.017-.937-1.33-.41-.312-.907-.468-1.492-.468-.596 0-1.099.162-1.508.486-.41.324-.719.772-.929 1.346-.211.574-.316 1.239-.316 1.995 0 .76.105 1.434.316 2.02.216.579.525 1.033.929 1.363.409.324.912.486 1.508.486Z" style="fill:#4a607a"/></symbol><symbol id="open-eye-light" viewBox="0 -960 960 960">
  <path d="M480-320q75 0 127.5-52.5T660-500q0-75-52.5-127.5T480-680q-75 0-127.5 52.5T300-500q0 75 52.5 127.5T480-320Zm0-72q-45 0-76.5-31.5T372-500q0-45 31.5-76.5T480-608q45 0 76.5 31.5T588-500q0 45-31.5 76.5T480-392Zm0 192q-146 0-266-81.5T40-500q54-137 174-218.5T480-800q146 0 266 81.5T920-500q-54 137-174 218.5T480-200Zm0-300Zm0 220q113 0 207.5-59.5T832-500q-50-101-144.5-160.5T480-720q-113 0-207.5 59.5T128-500q50 101 144.5 160.5T480-280Z" style="fill: white;"/>
</symbol></svg>